<!-- svg icons -->
<svg xmlns="http://www.w3.org/2000/svg" style="display: none;">

	<symbol id="window-control_close" viewBox="0 0 30 30">
		<path d="M15.71,15l4.15-4.15a.5.5,0,0,0-.71-.71L15,14.29l-4.15-4.15a.5.5,0,1,0-.71.71L14.29,15l-4.15,4.15a.5.5,0,1,0,.71.71L15,15.71l4.15,4.15a.5.5,0,1,0,.71-.71Z"/>
	</symbol>

	<symbol id="window-control_maximize" viewBox="0 0 30 30">
		<path d="M20,20H10V10H20Zm-9-1h8V11H11Z"/>
	</symbol>

	<symbol id="window-control_restore" viewBox="0 0 30 30">
		<path d="M9,21h8V13H9Zm1-7h6v6H10Zm3-5v3h1V10h6v6H18v1h3V9Z"/>
	</symbol>

	<symbol id="window-control_minimize" viewBox="0 0 30 30">
		<rect x="10" y="19" width="10" height="1"/>
	</symbol>

	<symbol id="window-control_support" viewBox="0 0 30 30">
		<rect x="13.5" y="19" width="2" height="2"/>
		<path d="M16.5,9H12v1h4.5A1.5,1.5,0,0,1,18,11.5v1A1.5,1.5,0,0,1,16.5,14H14v3h1V15h1.5A2.5,2.5,0,0,0,19,12.5v-1A2.5,2.5,0,0,0,16.5,9Z"/>
	</symbol>

	<symbol id="window-control_settings" viewBox="0 0 30 30">
		<path d="M23,16.5v-3H20.8A6,6,0,0,0,20.16,12l1.55-1.55L19.6,8.28,18,9.84A6,6,0,0,0,16.5,9.2V7h-3V9.2A6,6,0,0,0,12,9.84L10.4,8.28,8.28,10.4,9.84,12A6,6,0,0,0,9.2,13.5H7v3H9.2A6,6,0,0,0,9.84,18L8.28,19.6l2.12,2.12L12,20.16a6,6,0,0,0,1.54.64V23h3V20.8A6,6,0,0,0,18,20.16l1.55,1.55,2.12-2.12L20.16,18a6,6,0,0,0,.64-1.54ZM15,18a3,3,0,1,1,3-3A3,3,0,0,1,15,18Z"/>
	</symbol>

	<symbol id="window-control_locked" viewBox="0 0 30 30">
		<path d="M18,15V11a2,2,0,0,0-2-2H14a2,2,0,0,0-2,2v4H10v6H20V15Zm-5,0V11a1,1,0,0,1,1-1h2a1,1,0,0,1,1,1v4Z"/>
	</symbol>

	<symbol id="window-control_unlocked" viewBox="0 0 30 30">
		<path d="M18,17H13V9a1,1,0,0,1,1-1h2a1,1,0,0,1,1,1v4h1V9a2,2,0,0,0-2-2H14a2,2,0,0,0-2,2v8H10v6H20V17Z"/>
	</symbol>

	<symbol id="search" viewBox="0 0 30 30">
		<path d="M17,8c-2.8,0-5,2.2-5,5c0,1.2,0.4,2.3,1.1,3.1l-4,4c-0.2,0.2-0.2,0.5,0,0.7C9.2,21,9.4,21,9.5,21
		s0.3,0,0.4-0.1l4-4c0.9,0.7,1.9,1.1,3.1,1.1c2.8,0,5-2.2,5-5S19.8,8,17,8z M17,17c-1,0-1.8-0.4-2.5-0.9c-0.2-0.2-0.4-0.4-0.6-0.6
		C13.4,14.8,13,14,13,13c0-2.2,1.8-4,4-4s4,1.8,4,4S19.2,17,17,17z"/>
	</symbol>

	<symbol id="home" viewBox="0 0 30 30">
		<path d="M22.77,13.08,15,8,7.23,13.08a.5.5,0,0,0,.55.84L10,12.46v9a.5.5,0,0,0,1,0V11.81L15,9.2l4,2.61V21.5a.5.5,0,0,0,1,0v-9l2.23,1.45a.5.5,0,0,0,.55-.84Z"/>
	</symbol>

	<symbol id="bottom-arrow-indicator" viewBox="0 0 30 30">
		<path d="M15,17,9.26,13.92a.49.49,0,0,1-.2-.67.5.5,0,0,1,.68-.2L15,15.88l5.26-2.82a.5.5,0,0,1,.68.2.49.49,0,0,1-.2.67Z"/>
	</symbol>

	<symbol id="right-arrow-indicator" viewBox="0 0 30 30">
		<path d="M17,15l-3.08,5.74a.49.49,0,0,1-.67.2.5.5,0,0,1-.2-.68L15.88,15,13.06,9.74a.5.5,0,0,1,.2-.68.49.49,0,0,1,.67.2Z"/>
	</symbol>

	<symbol id="external-link" viewBox="0 0 30 30">
		<path d="M16.5,14a.5.5,0,0,1-.35-.85l4.5-4.5a.5.5,0,0,1,.71.71l-4.5,4.5A.5.5,0,0,1,16.5,14Z"/>
		<path d="M21.5,13a.5.5,0,0,1-.5-.5V9H17.5a.5.5,0,0,1,0-1H22v4.5A.5.5,0,0,1,21.5,13Z"/>
		<polygon points="19 14 19 19 11 19 11 11 16 11 16 10 10 10 10 20 20 20 20 14 19 14"/>
	</symbol>

	<symbol id="add+" viewBox="0 0 30 30">
		<rect x="14" y="9" width="1" height="11"/>
		<rect x="9" y="14" width="11" height="1"/>
	</symbol>

	<symbol id="right-arrow" viewBox="0 0 30 30">
		<path d="M9,14h10.3L15,8.8c-0.2-0.2-0.1-0.5,0.1-0.7c0.2-0.2,0.5-0.1,0.7,0.1l5.3,6.3l-5.3,6.3
		c-0.1,0.1-0.2,0.2-0.4,0.2c-0.1,0-0.2,0-0.3-0.1c-0.2-0.2-0.2-0.5-0.1-0.7l4.3-5.2H9V14z"/>
	</symbol>

</svg>
